<?xml version="1.0" standalone="no"?>
<!DOCTYPE svg PUBLIC "-//W3C//DTD SVG 20010904//EN"
 "http://www.w3.org/TR/2001/REC-SVG-20010904/DTD/svg10.dtd">
<svg version="1.0" xmlns="http://www.w3.org/2000/svg"
 width="512.000000pt" height="322.000000pt" viewBox="0 0 512.000000 322.000000"
 preserveAspectRatio="xMidYMid meet">

<g transform="translate(0.000000,322.000000) scale(0.10000,-0.100200)"
fill="#000000" stroke="none">
<path d="M1 2248 c0 -966 0 -973 19 -903 35 135 82 217 175 308 48 48 53 57
59 112 10 80 48 230 86 340 66 188 191 380 408 628 111 126 180 178 334 251
248 118 545 190 938 229 19 2 -427 5 -992 5 l-1028 2 1 -972z"/>
<path d="M2550 3209 c549 -71 1010 -350 1424 -864 132 -163 227 -257 294 -293
32 -16 123 -45 207 -66 212 -52 333 -112 436 -215 111 -110 165 -226 195 -416
10 -67 12 76 13 893 l1 972 -1317 -1 c-759 -1 -1290 -5 -1253 -10z"/>
<path d="M2405 2880 c-33 -3 -72 -12 -87 -18 -46 -19 -120 -94 -144 -147 -23
-48 -24 -60 -24 -277 0 -273 7 -318 61 -372 l39 -39 633 8 c624 7 632 7 664
28 61 41 68 94 23 183 -58 117 -260 342 -405 452 -83 63 -226 135 -310 157
-123 32 -303 42 -450 25z"/>
<path d="M1470 2824 c-138 -40 -238 -94 -328 -179 -153 -144 -272 -359 -272
-492 0 -33 7 -50 29 -75 29 -32 32 -33 133 -39 130 -9 529 -8 627 0 73 6 76 7
95 41 20 32 21 54 24 300 5 342 -1 404 -38 442 -27 26 -34 28 -107 27 -52 0
-106 -8 -163 -25z"/>
<path d="M1005 1563 c-248 -29 -480 -173 -618 -380 -97 -146 -137 -285 -137
-477 l0 -130 -46 44 c-92 90 -161 215 -189 345 -12 52 -14 -5 -14 -452 l-1
-513 493 1 492 0 -73 19 c-225 59 -416 236 -496 459 -30 83 -31 92 -30 241 0
142 3 161 27 230 138 381 538 576 921 449 148 -49 316 -188 391 -322 68 -124
89 -203 89 -352 1 -148 -14 -216 -70 -331 -89 -182 -274 -331 -471 -378 -51
-13 97 -14 1172 -14 1067 0 1222 1 1173 13 -445 108 -675 603 -473 1020 210
435 802 538 1148 200 81 -79 134 -160 176 -270 30 -79 34 -104 39 -211 6 -153
-12 -240 -76 -367 -87 -175 -263 -317 -454 -367 l-73 -19 608 0 607 -1 -1 478
c-1 310 -4 463 -10 438 -27 -115 -132 -246 -252 -315 -49 -28 -62 -31 -142
-31 -77 0 -86 2 -81 16 10 27 8 224 -4 284 -62 326 -305 584 -635 673 -121 32
-308 29 -428 -7 -163 -49 -282 -121 -394 -239 -162 -171 -241 -385 -231 -623
l5 -104 -502 0 -503 0 6 108 c18 385 -223 728 -598 850 -106 35 -238 48 -345
35z"/>
<path d="M993 1031 c-92 -34 -157 -94 -199 -185 -34 -72 -34 -190 0 -262 34
-73 88 -128 158 -164 52 -26 72 -30 138 -30 110 0 162 21 236 94 80 80 108
150 101 251 -8 124 -72 222 -182 276 -84 41 -176 49 -252 20z"/>
<path d="M3703 1036 c-100 -33 -161 -84 -211 -180 -23 -44 -27 -63 -27 -141 0
-78 4 -97 27 -140 51 -97 140 -164 244 -184 149 -28 310 63 364 205 61 165 -9
340 -169 420 -66 32 -164 41 -228 20z"/>
</g>
</svg>
