<?xml version="1.0" standalone="no"?>
<!DOCTYPE svg PUBLIC "-//W3C//DTD SVG 20010904//EN"
 "http://www.w3.org/TR/2001/REC-SVG-20010904/DTD/svg10.dtd">
<svg version="1.0" xmlns="http://www.w3.org/2000/svg"
 width="512.000000pt" height="512.000000pt" viewBox="0 0 512.000000 512.000000"
 preserveAspectRatio="xMidYMid meet">

<g transform="translate(0.000000,512.000000) scale(0.100000,-0.100000)"
fill="#FFFFFF" stroke="none">
<path d="M670 5109 c-14 -5 -36 -20 -48 -32 -56 -52 -52 126 -52 -2565 0
-1922 3 -2491 12 -2500 17 -17 279 -17 296 0 9 9 12 579 12 2504 l0 2491 -22
33 c-13 18 -35 42 -50 53 -31 23 -111 32 -148 16z"/>
<path d="M3470 4890 c-210 -20 -436 -56 -849 -136 -591 -114 -768 -136 -1076
-137 -122 0 -258 5 -305 12 -84 12 -219 37 -252 47 -17 5 -18 -21 -18 -441 l0
-445 23 -9 c44 -17 267 -51 377 -57 l110 -7 0 -368 0 -369 -42 5 c-24 2 -80 7
-125 10 -74 5 -247 32 -316 50 l-27 7 2 -448 3 -449 108 -22 c168 -33 349 -47
547 -40 277 10 514 43 1015 141 505 100 738 133 1005 143 274 10 546 -24 773
-98 79 -25 100 -29 112 -19 13 11 15 162 13 1258 l-3 1245 -40 14 c-99 35
-251 74 -361 94 -135 24 -504 34 -674 19z m250 -434 l0 -364 -102 -6 c-204
-13 -487 -45 -540 -62 -17 -5 -18 17 -18 364 l0 369 113 16 c99 15 232 30 352
40 22 2 75 4 118 5 l77 2 0 -364z m-1492 -223 l-3 -367 -35 -7 c-82 -17 -366
-49 -493 -55 l-137 -7 0 366 0 365 73 6 c256 19 365 30 462 46 61 9 116 18
123 19 10 1 12 -75 10 -366z m1862 -250 c98 -14 292 -59 353 -82 l27 -11 0
-364 0 -365 -47 15 c-155 48 -342 82 -512 92 l-106 7 -3 355 c-1 195 0 361 3
368 6 16 109 11 285 -15z m-1110 -424 c0 -279 -3 -361 -12 -364 -19 -7 -628
-125 -644 -125 -12 0 -14 62 -14 365 l0 365 23 5 c112 25 634 121 640 118 4
-2 7 -166 7 -364z m740 -733 l0 -363 -112 -7 c-137 -8 -377 -34 -475 -51 l-73
-12 0 367 0 367 103 17 c88 14 187 26 327 39 19 2 79 5 133 5 l97 2 0 -364z
m-1490 -220 c0 -314 -2 -365 -15 -370 -47 -18 -496 -66 -617 -66 l-38 0 0 364
0 364 63 6 c34 3 130 10 212 16 83 7 200 20 260 30 61 9 116 18 123 19 9 1 12
-78 12 -363z"/>
</g>
</svg>
